<svg version="1.1" id="Layer_1" xmlns="http://www.w3.org/2000/svg" xmlns:xlink="http://www.w3.org/1999/xlink" x="0px" y="0px"
	 width="100%" viewBox="0 0 1200 1349" enable-background="new 0 0 1200 1349" xml:space="preserve">
<path fill="#659AD2" opacity="1.000000" stroke="none" 
	d="
M1.000005,980.000000 
	C1.000000,777.645203 1.000000,575.290466 1.313339,372.796082 
	C1.983401,372.309326 2.579624,372.011108 2.662043,371.607880 
	C5.124390,359.561340 9.417363,348.146912 16.141964,337.921387 
	C22.035658,328.959351 28.190742,319.957611 35.542908,312.220703 
	C44.415817,302.883484 56.122906,297.100922 67.357391,290.849213 
	C81.262238,283.111511 94.891411,274.878815 108.648628,266.875336 
	C122.262848,258.955078 135.873703,251.028870 149.512955,243.151855 
	C161.891098,236.003159 174.315781,228.935028 186.701340,221.799088 
	C202.732483,212.562668 218.741837,203.288391 234.766815,194.041260 
	C248.687836,186.008224 262.614716,177.985291 276.544250,169.967056 
	C290.466675,161.952942 304.397614,153.953690 318.321136,145.941483 
	C330.295593,139.050812 342.270264,132.160538 354.234985,125.252983 
	C370.549408,115.834213 386.857544,106.404488 403.162689,96.969643 
	C416.931213,89.002571 430.684387,81.008934 444.457733,73.050232 
	C458.383820,65.003273 472.324677,56.981976 486.262115,48.954700 
	C500.618866,40.685898 515.043030,32.531757 529.320557,24.128420 
	C544.281311,15.322975 558.852112,5.732971 576.504089,2.906863 
	C577.089478,2.813139 577.505188,1.659556 578.000000,1.000005 
	C593.021423,1.000000 608.042908,1.000000 623.295898,1.366219 
	C623.882385,2.078217 624.192810,2.658602 624.598633,2.735605 
	C636.030518,4.904644 646.694580,8.886984 656.759399,14.870795 
	C671.012573,23.344763 685.637207,31.191242 700.012756,39.462914 
	C718.175964,49.914024 736.226074,60.561657 754.367188,71.051506 
	C768.579651,79.269676 782.894592,87.310837 797.095276,95.549095 
	C817.339844,107.293617 837.484314,119.210991 857.744263,130.928680 
	C869.697205,137.841827 881.848633,144.411835 893.807678,151.314713 
	C912.244507,161.956650 930.560242,172.808243 948.989502,183.463531 
	C962.921631,191.518723 976.991577,199.335480 990.926636,207.385803 
	C1009.215637,217.951431 1027.404053,228.691132 1045.689087,239.263626 
	C1059.761475,247.400375 1073.964600,255.311264 1088.022217,263.472900 
	C1105.872070,273.836151 1123.350830,284.878906 1141.528442,294.623474 
	C1154.565430,301.612274 1165.452881,310.880951 1175.018921,321.763184 
	C1179.433472,326.785126 1182.363525,333.112030 1185.628052,338.949463 
	C1119.945435,376.755035 1054.610107,414.473206 989.250732,452.149841 
	C975.270813,460.208588 961.203979,468.116455 947.065674,475.753296 
	C904.562805,403.387024 845.491089,349.627197 769.986328,313.890930 
	C724.402344,292.316132 676.300598,280.149261 626.065063,277.238861 
	C606.711182,276.117615 587.124023,276.685211 567.787720,278.258972 
	C548.680481,279.814087 529.452698,282.308929 510.803131,286.648712 
	C428.382690,305.828186 358.788147,347.279053 302.465179,410.394348 
	C250.278000,468.875061 217.966522,537.052673 205.877625,614.593201 
	C203.708466,628.506775 201.794113,642.552551 201.217468,656.597046 
	C200.584564,672.011353 201.405930,687.503906 202.008316,702.946167 
	C202.860001,724.779724 206.649323,746.225281 211.543488,767.475342 
	C220.462463,806.200867 235.390167,842.556946 254.667419,877.036255 
	C252.668610,877.841980 250.982590,878.554260 249.409271,879.461914 
	C226.055527,892.934326 202.728363,906.452820 179.371994,919.920654 
	C124.876862,951.343933 70.369476,982.745911 15.572662,1013.957458 
	C10.047658,1003.058838 4.749986,992.386536 2.672309,980.483582 
	C2.628513,980.232727 1.579875,980.157288 1.000005,980.000000 
z"/>
<path fill="#00315F" opacity="1.000000" stroke="none" 
	d="
M15.867023,1014.156494 
	C70.369476,982.745911 124.876862,951.343933 179.371994,919.920654 
	C202.728363,906.452820 226.055527,892.934326 249.409271,879.461914 
	C250.982590,878.554260 252.668610,877.841980 254.866241,877.305603 
	C265.005249,891.924500 273.813416,906.866638 284.310272,920.509460 
	C308.283997,951.668152 336.410156,978.846680 368.403503,1001.687195 
	C400.365479,1024.505249 435.002106,1042.531006 472.321655,1055.002808 
	C485.611938,1059.444336 499.094299,1063.726196 512.819580,1066.354126 
	C533.789917,1070.369263 554.959473,1074.358032 576.207336,1075.624268 
	C597.443359,1076.889893 618.951172,1077.551758 640.230347,1074.086548 
	C653.762207,1071.882935 667.474060,1070.645630 680.898560,1067.947266 
	C727.413574,1058.597168 770.843018,1041.219971 811.203308,1016.283813 
	C854.038391,989.818665 890.786316,956.570618 920.867493,916.182495 
	C930.242004,903.596008 938.437134,890.130981 947.528931,877.114380 
	C949.279846,877.675903 950.778992,878.007629 952.051453,878.735596 
	C961.582031,884.188049 971.065674,889.722534 980.568054,895.224365 
	C1006.770752,910.395630 1032.962036,925.586792 1059.182861,940.726807 
	C1089.004883,957.946167 1118.858765,975.110779 1148.689453,992.315369 
	C1161.054077,999.446594 1173.394531,1006.619629 1187.037842,1014.521851 
	C1191.076660,1003.606445 1194.867310,993.264160 1198.766968,982.963135 
	C1199.187378,981.852722 1200.240356,980.981934 1201.000000,980.000000 
	C1201.000000,1103.279297 1201.000000,1226.558594 1201.000000,1350.000000 
	C991.645813,1350.000000 782.291565,1350.000000 572.428467,1349.633789 
	C567.017700,1347.428711 561.864990,1346.069214 557.261169,1343.660522 
	C543.812866,1336.624756 530.459717,1329.386353 517.295105,1321.833618 
	C492.348999,1307.522095 467.599396,1292.868530 442.694397,1278.484863 
	C420.364563,1265.588623 397.890289,1252.942627 375.562195,1240.043457 
	C350.523499,1225.578247 325.622162,1210.875366 300.578156,1196.419434 
	C275.953247,1182.205322 251.179092,1168.249878 226.554077,1154.035889 
	C201.509964,1139.580200 176.589981,1124.909668 151.572525,1110.407471 
	C137.687775,1102.358887 123.684242,1094.515259 109.789513,1086.483765 
	C93.617012,1077.135498 77.756577,1067.212891 61.301529,1058.396606 
	C41.788120,1047.941772 26.430679,1033.609619 15.867023,1014.156494 
z"/>
<path fill="#00599C" opacity="1.000000" stroke="none" 
	d="
M1201.000000,979.531372 
	C1200.240356,980.981934 1199.187378,981.852722 1198.766968,982.963135 
	C1194.867310,993.264160 1191.076660,1003.606445 1187.037842,1014.521851 
	C1173.394531,1006.619629 1161.054077,999.446594 1148.689453,992.315369 
	C1118.858765,975.110779 1089.004883,957.946167 1059.182861,940.726807 
	C1032.962036,925.586792 1006.770752,910.395630 980.568054,895.224365 
	C971.065674,889.722534 961.582031,884.188049 952.051453,878.735596 
	C950.778992,878.007629 949.279846,877.675903 947.429565,876.769653 
	C946.033813,875.704651 945.143433,874.945740 944.147644,874.368896 
	C888.766663,842.291443 833.379089,810.225464 777.974182,778.189209 
	C776.728821,777.469055 775.278137,777.103882 773.715576,776.335999 
	C772.161072,775.143372 770.881165,774.072021 769.457397,773.249878 
	C750.875610,762.519531 732.268127,751.833740 713.677673,741.118286 
	C688.602478,726.664917 663.508484,712.243652 638.478516,697.712219 
	C626.259644,690.618469 614.167480,683.306641 602.251221,675.844238 
	C642.034790,652.718079 681.600220,629.867310 721.128540,606.952454 
	C738.792725,596.712463 756.382324,586.343872 774.363892,576.008545 
	C807.658691,556.967102 840.612915,537.980835 873.526489,518.924438 
	C898.103882,504.694519 922.628784,490.373962 947.177124,476.093781 
	C961.203979,468.116455 975.270813,460.208588 989.250732,452.149841 
	C1054.610107,414.473206 1119.945435,376.755035 1185.950317,339.115112 
	C1190.731689,349.295715 1194.829224,359.422424 1199.010864,369.514313 
	C1199.401001,370.455963 1200.324219,371.176727 1201.000000,372.000000 
	C1201.000000,574.354248 1201.000000,776.708435 1201.000000,979.531372 
M1079.036499,742.541870 
	C1079.361328,742.620239 1079.686035,742.698547 1080.939819,742.896362 
	C1094.620117,742.856567 1108.300415,742.816711 1122.523193,742.887878 
	C1122.657959,742.589722 1122.792725,742.291565 1123.108521,741.072266 
	C1123.108521,726.981506 1123.108521,712.890747 1123.108521,698.167969 
	C1138.323486,698.167969 1152.867188,698.167969 1167.436279,698.167969 
	C1167.436279,683.119812 1167.436279,668.714355 1167.436279,653.801025 
	C1152.558838,653.801025 1137.991699,653.801025 1123.034790,653.801025 
	C1123.034790,638.864197 1123.034790,624.434326 1123.034790,609.774597 
	C1108.223022,609.774597 1093.815430,609.774597 1078.836670,609.774597 
	C1078.836670,624.507568 1078.836670,639.066895 1078.836670,654.131592 
	C1063.713257,654.131592 1049.152222,654.131592 1034.550049,654.131592 
	C1034.550049,669.066833 1034.550049,683.479675 1034.550049,698.483154 
	C1049.418701,698.483154 1063.994507,698.483154 1078.860229,698.483154 
	C1078.860229,706.221497 1078.832764,713.369690 1078.868042,720.517578 
	C1078.903442,727.675476 1079.001587,734.833130 1079.036499,742.541870 
M1000.999878,659.612610 
	C1000.999878,657.840820 1000.999878,656.068970 1000.999878,653.773926 
	C985.898926,653.773926 971.350952,653.773926 956.350647,653.773926 
	C956.350647,638.828064 956.350647,624.410400 956.350647,609.771301 
	C941.458801,609.771301 927.036316,609.771301 912.062866,609.771301 
	C912.062866,624.515503 912.062866,639.073425 912.062866,654.182495 
	C896.979797,654.182495 882.438538,654.182495 868.083618,654.182495 
	C868.083618,669.169495 868.083618,683.590515 868.083618,698.460327 
	C882.831604,698.460327 897.252808,698.460327 912.193848,698.460327 
	C912.193848,713.471375 912.193848,728.035278 912.193848,742.701782 
	C927.151855,742.701782 941.579468,742.701782 956.626343,742.701782 
	C956.626343,727.940002 956.626343,713.376892 956.626343,698.381165 
	C971.661316,698.381165 986.085449,698.381165 1000.999878,698.381165 
	C1000.999878,685.488098 1000.999878,673.037476 1000.999878,659.612610 
z"/>
<path fill="#000000" opacity="1.000000" stroke="none" 
	d="
M577.531372,1.000005 
	C577.505188,1.659556 577.089478,2.813139 576.504089,2.906863 
	C558.852112,5.732971 544.281311,15.322975 529.320557,24.128420 
	C515.043030,32.531757 500.618866,40.685898 486.262115,48.954700 
	C472.324677,56.981976 458.383820,65.003273 444.457733,73.050232 
	C430.684387,81.008934 416.931213,89.002571 403.162689,96.969643 
	C386.857544,106.404488 370.549408,115.834213 354.234985,125.252983 
	C342.270264,132.160538 330.295593,139.050812 318.321136,145.941483 
	C304.397614,153.953690 290.466675,161.952942 276.544250,169.967056 
	C262.614716,177.985291 248.687836,186.008224 234.766815,194.041260 
	C218.741837,203.288391 202.732483,212.562668 186.701340,221.799088 
	C174.315781,228.935028 161.891098,236.003159 149.512955,243.151855 
	C135.873703,251.028870 122.262848,258.955078 108.648628,266.875336 
	C94.891411,274.878815 81.262238,283.111511 67.357391,290.849213 
	C56.122906,297.100922 44.415817,302.883484 35.542908,312.220703 
	C28.190742,319.957611 22.035658,328.959351 16.141964,337.921387 
	C9.417363,348.146912 5.124390,359.561340 2.662043,371.607880 
	C2.579624,372.011108 1.983401,372.309326 1.313339,372.328247 
	C1.000000,248.390411 1.000000,124.780815 1.000000,1.000000 
	C193.020859,1.000000 385.041779,1.000000 577.531372,1.000005 
z"/>
<path fill="#000000" opacity="1.000000" stroke="none" 
	d="
M1201.000000,371.531372 
	C1200.324219,371.176727 1199.401001,370.455963 1199.010864,369.514313 
	C1194.829224,359.422424 1190.731689,349.295715 1186.288940,339.012878 
	C1182.363525,333.112030 1179.433472,326.785126 1175.018921,321.763184 
	C1165.452881,310.880951 1154.565430,301.612274 1141.528442,294.623474 
	C1123.350830,284.878906 1105.872070,273.836151 1088.022217,263.472900 
	C1073.964600,255.311264 1059.761475,247.400375 1045.689087,239.263626 
	C1027.404053,228.691132 1009.215637,217.951431 990.926636,207.385803 
	C976.991577,199.335480 962.921631,191.518723 948.989502,183.463531 
	C930.560242,172.808243 912.244507,161.956650 893.807678,151.314713 
	C881.848633,144.411835 869.697205,137.841827 857.744263,130.928680 
	C837.484314,119.210991 817.339844,107.293617 797.095276,95.549095 
	C782.894592,87.310837 768.579651,79.269676 754.367188,71.051506 
	C736.226074,60.561657 718.175964,49.914024 700.012756,39.462914 
	C685.637207,31.191242 671.012573,23.344763 656.759399,14.870795 
	C646.694580,8.886984 636.030518,4.904644 624.598633,2.735605 
	C624.192810,2.658602 623.882385,2.078217 623.763794,1.366219 
	C816.244568,1.000000 1008.489197,1.000000 1201.000000,1.000000 
	C1201.000000,124.354103 1201.000000,247.708389 1201.000000,371.531372 
z"/>
<path fill="#000000" opacity="1.000000" stroke="none" 
	d="
M15.572662,1013.957458 
	C26.430679,1033.609619 41.788120,1047.941772 61.301529,1058.396606 
	C77.756577,1067.212891 93.617012,1077.135498 109.789513,1086.483765 
	C123.684242,1094.515259 137.687775,1102.358887 151.572525,1110.407471 
	C176.589981,1124.909668 201.509964,1139.580200 226.554077,1154.035889 
	C251.179092,1168.249878 275.953247,1182.205322 300.578156,1196.419434 
	C325.622162,1210.875366 350.523499,1225.578247 375.562195,1240.043457 
	C397.890289,1252.942627 420.364563,1265.588623 442.694397,1278.484863 
	C467.599396,1292.868530 492.348999,1307.522095 517.295105,1321.833618 
	C530.459717,1329.386353 543.812866,1336.624756 557.261169,1343.660522 
	C561.864990,1346.069214 567.017700,1347.428711 571.959839,1349.633789 
	C381.755188,1350.000000 191.510361,1350.000000 1.000000,1350.000000 
	C1.000000,1226.979248 1.000000,1103.958252 1.000005,980.468628 
	C1.579875,980.157288 2.628513,980.232727 2.672309,980.483582 
	C4.749986,992.386536 10.047658,1003.058838 15.572662,1013.957458 
z"/>
<path fill="#FFFFFF" opacity="1.000000" stroke="none" 
	d="
M773.923218,776.573059 
	C775.278137,777.103882 776.728821,777.469055 777.974182,778.189209 
	C833.379089,810.225464 888.766663,842.291443 944.147644,874.368896 
	C945.143433,874.945740 946.033813,875.704651 947.072754,876.723389 
	C938.437134,890.130981 930.242004,903.596008 920.867493,916.182495 
	C890.786316,956.570618 854.038391,989.818665 811.203308,1016.283813 
	C770.843018,1041.219971 727.413574,1058.597168 680.898560,1067.947266 
	C667.474060,1070.645630 653.762207,1071.882935 640.230347,1074.086548 
	C618.951172,1077.551758 597.443359,1076.889893 576.207336,1075.624268 
	C554.959473,1074.358032 533.789917,1070.369263 512.819580,1066.354126 
	C499.094299,1063.726196 485.611938,1059.444336 472.321655,1055.002808 
	C435.002106,1042.531006 400.365479,1024.505249 368.403503,1001.687195 
	C336.410156,978.846680 308.283997,951.668152 284.310272,920.509460 
	C273.813416,906.866638 265.005249,891.924500 255.231415,877.303101 
	C235.390167,842.556946 220.462463,806.200867 211.543488,767.475342 
	C206.649323,746.225281 202.860001,724.779724 202.008316,702.946167 
	C201.405930,687.503906 200.584564,672.011353 201.217468,656.597046 
	C201.794113,642.552551 203.708466,628.506775 205.877625,614.593201 
	C217.966522,537.052673 250.278000,468.875061 302.465179,410.394348 
	C358.788147,347.279053 428.382690,305.828186 510.803131,286.648712 
	C529.452698,282.308929 548.680481,279.814087 567.787720,278.258972 
	C587.124023,276.685211 606.711182,276.117615 626.065063,277.238861 
	C676.300598,280.149261 724.402344,292.316132 769.986328,313.890930 
	C845.491089,349.627197 904.562805,403.387024 947.065674,475.753235 
	C922.628784,490.373962 898.103882,504.694519 873.526489,518.924438 
	C840.612915,537.980835 807.658691,556.967102 774.243103,575.684448 
	C729.489197,500.909790 644.528503,462.387299 560.596680,480.493439 
	C492.603394,495.161224 444.692749,535.660950 416.481873,599.217651 
	C407.653381,619.107544 402.693237,640.204224 401.256348,661.818481 
	C400.036285,680.170837 400.956848,698.597534 405.043091,716.738586 
	C409.759460,737.676575 416.504547,757.770081 428.123871,776.364990 
	C434.698151,785.944031 440.598419,795.690369 447.814148,804.339294 
	C472.177551,833.541504 502.544312,854.103882 538.693420,866.241455 
	C553.318420,871.151978 568.268372,874.832825 583.509583,875.755432 
	C605.595764,877.092407 627.615906,875.932922 649.310913,870.160095 
	C703.552734,855.727112 745.107239,824.707764 773.923218,776.573059 
z"/>
<path fill="#659AD2" opacity="1.000000" stroke="none" 
	d="
M428.052704,776.029480 
	C416.504547,757.770081 409.759460,737.676575 405.043091,716.738586 
	C400.956848,698.597534 400.036285,680.170837 401.256348,661.818481 
	C402.693237,640.204224 407.653381,619.107544 416.481873,599.217651 
	C444.692749,535.660950 492.603394,495.161224 560.596680,480.493439 
	C644.528503,462.387299 729.489197,500.909790 773.885010,575.709473 
	C756.382324,586.343872 738.792725,596.712463 721.128540,606.952454 
	C681.600220,629.867310 642.034790,652.718079 601.913818,675.918152 
	C586.353699,684.856384 571.357239,693.459167 556.376160,702.088623 
	C513.598328,726.729797 470.826752,751.381775 428.052704,776.029480 
z"/>
<path fill="#004482" opacity="1.000000" stroke="none" 
	d="
M428.123871,776.364990 
	C470.826752,751.381775 513.598328,726.729797 556.376160,702.088623 
	C571.357239,693.459167 586.353699,684.856384 601.680542,676.167480 
	C614.167480,683.306641 626.259644,690.618469 638.478516,697.712219 
	C663.508484,712.243652 688.602478,726.664917 713.677673,741.118286 
	C732.268127,751.833740 750.875610,762.519531 769.457397,773.249878 
	C770.881165,774.072021 772.161072,775.143372 773.715576,776.335999 
	C745.107239,824.707764 703.552734,855.727112 649.310913,870.160095 
	C627.615906,875.932922 605.595764,877.092407 583.509583,875.755432 
	C568.268372,874.832825 553.318420,871.151978 538.693420,866.241455 
	C502.544312,854.103882 472.177551,833.541504 447.814148,804.339294 
	C440.598419,795.690369 434.698151,785.944031 428.123871,776.364990 
z"/>
<path fill="#FFFFFF" opacity="1.000000" stroke="none" 
	d="
M1000.999878,660.099731 
	C1000.999878,673.037476 1000.999878,685.488098 1000.999878,698.381165 
	C986.085449,698.381165 971.661316,698.381165 956.626343,698.381165 
	C956.626343,713.376892 956.626343,727.940002 956.626343,742.701782 
	C941.579468,742.701782 927.151855,742.701782 912.193848,742.701782 
	C912.193848,728.035278 912.193848,713.471375 912.193848,698.460327 
	C897.252808,698.460327 882.831604,698.460327 868.083618,698.460327 
	C868.083618,683.590515 868.083618,669.169495 868.083618,654.182495 
	C882.438538,654.182495 896.979797,654.182495 912.062866,654.182495 
	C912.062866,639.073425 912.062866,624.515503 912.062866,609.771301 
	C927.036316,609.771301 941.458801,609.771301 956.350647,609.771301 
	C956.350647,624.410400 956.350647,638.828064 956.350647,653.773926 
	C971.350952,653.773926 985.898926,653.773926 1000.999878,653.773926 
	C1000.999878,656.068970 1000.999878,657.840820 1000.999878,660.099731 
z"/>
<path fill="#FFFFFF" opacity="1.000000" stroke="none" 
	d="
M1121.980713,742.776855 
	C1108.300415,742.816711 1094.620117,742.856567 1080.353149,742.668152 
	C1079.570068,742.236145 1079.338623,742.086426 1079.072266,741.990845 
	C1079.001587,734.833130 1078.903442,727.675476 1078.868042,720.517578 
	C1078.832764,713.369690 1078.860229,706.221497 1078.860229,698.483154 
	C1063.994507,698.483154 1049.418701,698.483154 1034.550049,698.483154 
	C1034.550049,683.479675 1034.550049,669.066833 1034.550049,654.131592 
	C1049.152222,654.131592 1063.713257,654.131592 1078.836670,654.131592 
	C1078.836670,639.066895 1078.836670,624.507568 1078.836670,609.774597 
	C1093.815430,609.774597 1108.223022,609.774597 1123.034790,609.774597 
	C1123.034790,624.434326 1123.034790,638.864197 1123.034790,653.801025 
	C1137.991699,653.801025 1152.558838,653.801025 1167.436279,653.801025 
	C1167.436279,668.714355 1167.436279,683.119812 1167.436279,698.167969 
	C1152.867188,698.167969 1138.323486,698.167969 1123.108521,698.167969 
	C1123.108521,712.890747 1123.108521,726.981506 1122.830566,741.624634 
	C1122.311768,742.329163 1122.121216,742.529114 1121.980713,742.776855 
z"/>
<path fill="#DAE7F1" opacity="1.000000" stroke="none" 
	d="
M1079.054321,742.266357 
	C1079.338623,742.086426 1079.570068,742.236145 1079.888672,742.608398 
	C1079.686035,742.698547 1079.361328,742.620239 1079.054321,742.266357 
z"/>
<path fill="#DAE7F1" opacity="1.000000" stroke="none" 
	d="
M1122.251953,742.832397 
	C1122.121216,742.529114 1122.311768,742.329163 1122.739990,742.085266 
	C1122.792725,742.291565 1122.657959,742.589722 1122.251953,742.832397 
z"/>
</svg>