<?xml version="1.0" encoding="UTF-8"?>
<svg version="1.1" xmlns="http://www.w3.org/2000/svg" width="225" height="225">
<path d="M0 0 C74.25 0 148.5 0 225 0 C225 74.25 225 148.5 225 225 C150.75 225 76.5 225 0 225 C0 150.75 0 76.5 0 0 Z " fill="#5F6F50" transform="translate(0,0)"/>
<path d="M0 0 C74.25 0 148.5 0 225 0 C225 24.75 225 49.5 225 75 C150.75 75 76.5 75 0 75 C0 50.25 0 25.5 0 0 Z " fill="#818180" transform="translate(0,150)"/>
<path d="M0 0 C74.25 0 148.5 0 225 0 C225 13.2 225 26.4 225 40 C150.75 40 76.5 40 0 40 C0 26.8 0 13.6 0 0 Z " fill="#5F6B53" transform="translate(0,0)"/>
<path d="M0 0 C74.25 0 148.5 0 225 0 C225 8.91 225 17.82 225 27 C150.75 27 76.5 27 0 27 C0 18.09 0 9.18 0 0 Z " fill="#617152" transform="translate(0,40)"/>
<path d="M0 0 C74.25 0 148.5 0 225 0 C225 4.29 225 8.58 225 13 C150.75 13 76.5 13 0 13 C0 8.71 0 4.42 0 0 Z " fill="#898989" transform="translate(0,0)"/>
<path d="M0 0 C74.25 0 148.5 0 225 0 C225 3.63 225 7.26 225 11 C150.75 11 76.5 11 0 11 C0 7.37 0 3.74 0 0 Z " fill="#536246" transform="translate(0,105)"/>
<path d="M0 0 C74.25 0 148.5 0 225 0 C225 2.64 225 5.28 225 8 C150.75 8 76.5 8 0 8 C0 5.36 0 2.72 0 0 Z " fill="#7B7D79" transform="translate(0,150)"/>
<path d="M0 0 C74.25 0 148.5 0 225 0 C225 2.64 225 5.28 225 8 C150.75 8 76.5 8 0 8 C0 5.36 0 2.72 0 0 Z " fill="#65715A" transform="translate(0,142)"/>
<path d="M0 0 C74.25 0 148.5 0 225 0 C225 2.31 225 4.62 225 7 C150.75 7 76.5 7 0 7 C0 4.69 0 2.38 0 0 Z " fill="#6B7C5A" transform="translate(0,98)"/>
<path d="M0 0 C74.25 0 148.5 0 225 0 C225 1.65 225 3.3 225 5 C150.75 5 76.5 5 0 5 C0 3.35 0 1.7 0 0 Z " fill="#49563C" transform="translate(0,93)"/>
<path d="M0 0 C74.25 0 148.5 0 225 0 C225 1.65 225 3.3 225 5 C150.75 5 76.5 5 0 5 C0 3.35 0 1.7 0 0 Z " fill="#4D5842" transform="translate(0,67)"/>
<path d="M0 0 C74.25 0 148.5 0 225 0 C225 1.32 225 2.64 225 4 C150.75 4 76.5 4 0 4 C0 2.68 0 1.36 0 0 Z " fill="#70776A" transform="translate(0,150)"/>
</svg>
